PathFileType	4	(X/Y/Z)	14_2_104_p1_0-275_filt_butterworth.trc
DataRate	CameraRate	NumFrames	NumMarkers	Units	OrigDataRate	OrigDataStartFrame	OrigNumFrames
59.0	59.0	7	27	m	59.0	206	275
Frame#	Time	RHip			RKnee			RAnkle			RBigToe			RSmallToe			RHeel			LHip			LKnee			LAnkle			LBigToe			LSmallToe			LHeel			Neck			Head			Nose			RShoulder			RElbow			RWrist			RThumb			RIndex			RPinky			LShoulder			LElbow			LWrist			LThumb			LIndex			LPinky			
		X1	Y1	Z1	X2	Y2	Z2	X3	Y3	Z3	X4	Y4	Z4	X5	Y5	Z5	X6	Y6	Z6	X7	Y7	Z7	X8	Y8	Z8	X9	Y9	Z9	X10	Y10	Z10	X11	Y11	Z11	X12	Y12	Z12	X13	Y13	Z13	X14	Y14	Z14	X15	Y15	Z15	X16	Y16	Z16	X17	Y17	Z17	X18	Y18	Z18	X19	Y19	Z19	X20	Y20	Z20	X21	Y21	Z21	X22	Y22	Z22	X23	Y23	Z23	X24	Y24	Z24	X25	Y25	Z25	X26	Y26	Z26	X27	Y27	Z27	
206	3.4915254237288136	0.302573937485979	0.6106079245702258	0.3129814688827583	0.2796628576867592	0.7120936032655937	0.6944750215293725	0.2860466530292921	0.9415355502726701	1.1325856754359116	0.27333835555709063	0.7299601349003344	1.1728079864558003	0.33226572314146063	0.7547700284764219	1.172722440551932	0.2741250675074294	1.0047565004278833	1.1822905379542454	0.08049611262669444	0.6764855441900938	0.3121860068624866	0.09159020671596273	0.7711290680204981	0.7004912885150257	0.10161973222815206	0.8818227892524294	1.1244061623225636	0.11637851129640525	0.6936713958937045	1.151399414896717	0.0687477961544131	0.7085997428829565	1.1478797927894286	0.1230511377675151	0.9542401068217997	1.171477589538446	0.20628962500223003	0.4851357079690059	-0.3032920954711567	0.1884930594995706	0.3677604196067772	-0.5544032880073138	0.17211399469453742	0.33603436370671463	-0.38704624579648345	0.37283430498512243	0.48230571971211805	-0.20265239505303428	0.4277433887865997	0.5061338886802084	0.07983317386644861	0.40334096173000733	0.4526650945415942	0.3161690950394056	0.3248451702992561	0.41096171767577466	0.42534861423555814	0.33792543939377007	0.40565769487112574	0.45357853688838146	0.37800796140144927	0.4924772198215405	0.45659748948267276	0.035930740471064086	0.509221667897455	-0.21957005734670837	-0.03386889400982409	0.6056309759333968	0.0640831519448138	-0.0717969530384031	0.5628327648954146	0.3125244281931566	-0.015301251301301572	0.5141789704935393	0.40967493723970594	-0.03071651062700584	0.500774805681895	0.4405985005669507	-0.06635471544291491	0.5860625642808165	0.44634239355694355
207	3.5084745762711864	0.3050321995070667	0.6156125490875937	0.31225812885081267	0.2816968145653628	0.7125698111352334	0.6944208242289042	0.28483782092845017	0.9481892317748104	1.1342953512777212	0.27378340538837054	0.7337277430084239	1.174340145803764	0.3322143488063841	0.754805135203974	1.1726856260864396	0.2741336002786862	1.0046690766115107	1.1798955523968189	0.08312772415428951	0.6815787125383601	0.3119013122777635	0.09168978751128884	0.7715963699212293	0.7016655360859935	0.10163128436609141	0.8817605948970262	1.124386544953528	0.11649350513711319	0.6938953949380117	1.151472640156055	0.06878482471146696	0.7084383919537884	1.1477518383765521	0.12302598025791851	0.9543860160956852	1.1714180783514168	0.2062747329667838	0.4850824170483643	-0.3035978716011146	0.18827121577617423	0.36683624109804264	-0.5541484941589718	0.1722202726786002	0.3359790791935226	-0.3873967011156079	0.3736221870413504	0.477379065556966	-0.20301950025382762	0.4278255662723174	0.5061205881290491	0.0789876083015896	0.4039106061544552	0.4471565702126732	0.3140045261928441	0.3280504017361697	0.3926655470216962	0.4231897556463921	0.33970106773701075	0.3918716163707955	0.45313469173556487	0.3773150588657252	0.4642752377918845	0.4530272751819947	0.03591154910344198	0.5091810815832158	-0.21954759279748423	-0.03461319142895402	0.6024953406928222	0.0637242648401227	-0.07638745705525292	0.5563165657284648	0.31382363786222184	-0.0166223088614355	0.5101730295599741	0.4121526049893724	-0.03517172026064363	0.4986083376750357	0.4405649990269473	-0.07214215035998439	0.5809778215111181	0.44639927242370975
208	3.5254237288135597	0.307970536550398	0.6196558569902831	0.3106829461726166	0.2835296482188418	0.7134453547509935	0.6946527792054125	0.2839448673331928	0.9531788440526893	1.135029266494787	0.2740600511765872	0.7352566658167914	1.1749830291150318	0.33219539679348664	0.7553117819072181	1.1727822766769977	0.2741205075744714	1.0044970709778738	1.1786322020068936	0.08471412217822749	0.6853886831613092	0.3116179185109518	0.09166383610342294	0.7720813538718025	0.7031442875654785	0.10162782508059008	0.881708900220928	1.124444267299042	0.1166219575202356	0.6940449576678354	1.1518966015395546	0.06891905431866205	0.7085772997008535	1.1478567506938357	0.12290911431009022	0.9546397691394204	1.1714347933654077	0.20624569484829602	0.48485323156732824	-0.3050856238773321	0.18830377531018944	0.36713640192106106	-0.5540791690466655	0.17217877093560569	0.3356573270963317	-0.3887720243900116	0.3718769125720914	0.47261009778823704	-0.20349474134275836	0.42793748633340734	0.5062021842391928	0.07664127027415191	0.4046338534109506	0.44205112481769604	0.3096887340067387	0.3293595219925588	0.376395692293228	0.4195959980122049	0.34133492808809873	0.38199008207399504	0.4511452182741299	0.3727141996648107	0.44110338668799587	0.44940640647426017	0.03594328953418617	0.5092901990267156	-0.21957843695393123	-0.034919164767555744	0.6011727690662628	0.0637315651233734	-0.07958597418035006	0.5508914581716637	0.3151348646062606	-0.017310659174518562	0.5075650427602874	0.41610440997580117	-0.03839620104193595	0.49724422749291647	0.44064727076013976	-0.07740614297385545	0.5758193686037245	0.4463400488919029
209	3.542372881355932	0.31016251794280836	0.6233137271889464	0.3087805273622886	0.28371637771104596	0.7151346957251297	0.6948987894778145	0.2836126666682545	0.9550563407099625	1.135074357710581	0.2745844783929288	0.7355897024782624	1.1751690724718507	0.33219557454550214	0.7562609289129353	1.1730448183680342	0.274079498755389	1.0043086038528484	1.1785859331263375	0.08513535703792663	0.6869522052210119	0.31178205547446114	0.09155236588240985	0.7726149768924319	0.7047867211091065	0.1016049814927888	0.8816820646453797	1.1245069622695119	0.11668825731765393	0.694627702258309	1.1529576604612108	0.06858503671058779	0.7102681683630273	1.1485743993567055	0.12272823958046986	0.9547016686754508	1.1715064869880043	0.20621649566039407	0.4843598216582715	-0.3076950411308696	0.18785239780786886	0.3673193164400154	-0.5540120571957667	0.17169663604762095	0.33498803728812854	-0.39089938423489184	0.3686847130797277	0.46801071941622097	-0.20423259203452596	0.42811709149162736	0.5059000036588511	0.0734938768293261	0.40569260899694554	0.43558714440372903	0.30499428882547835	0.3298488408028687	0.36483162287294996	0.4160264683513495	0.34266010609960623	0.3757072067731739	0.4482393565212713	0.3682651587933011	0.42443819332986654	0.44574149655955686	0.036010550922715004	0.5094952998626765	-0.21964134665017476	-0.03530659721748315	0.5998506047173985	0.06338042773682252	-0.08235179396725886	0.5458061000161701	0.31603803227324856	-0.01889422445765173	0.5038250779234895	0.4190424405536367	-0.041869601824248405	0.4957827804554258	0.44064414318305556	-0.08205607068256676	0.567669760760569	0.4455620242304782
210	3.559322033898305	0.3110189568424677	0.6257447469243541	0.3070582467198816	0.28255209666084097	0.7184555797782652	0.6952637320084835	0.2836186386443363	0.9549813037274393	1.134927148447986	0.27565841982392714	0.7360687807856476	1.1754725209706143	0.33219560895021727	0.7571743216795861	1.1733709414773474	0.2740197244082838	1.0041740540554145	1.179446043311828	0.08487408433945022	0.6872295302691414	0.3130174063379425	0.09139927529590722	0.7732015058467961	0.706218350710281	0.10157342719673038	0.8816910930752198	1.1244942168305805	0.11640176100352478	0.696750503676334	1.1546741255270967	0.06742939611537699	0.714471042426892	1.1501864481494721	0.12258308712584133	0.9543801440795464	1.1716091309457295	0.2061908340868833	0.48361523949857144	-0.3107380324517111	0.18626691133985374	0.36601545343109143	-0.5539131381713887	0.17058280345260873	0.33407006521074445	-0.3929570017227728	0.36609094496405487	0.4645233446400907	-0.20518062139612814	0.42835966422539806	0.5039398933727195	0.07121487583924031	0.40742641329368456	0.4256239762539199	0.30085705404772634	0.3308463845087971	0.35810397215127904	0.4134113695067282	0.3437986945330405	0.3698442768853972	0.44501942821539325	0.3674738471684001	0.4140632009512846	0.4420727839433721	0.0360004580014972	0.5094090125526697	-0.21967411608159348	-0.036539421819072	0.596416424048398	0.062009574184151074	-0.08518812095254373	0.5408062348549082	0.3161737114506059	-0.02198741383467304	0.5000498130990958	0.41991572884339823	-0.04728534918130981	0.491939228068593	0.44020508906528477	-0.08647850260768364	0.5553996792817322	0.44389508921256393
211	3.5762711864406778	0.3110347706269523	0.6268357151088628	0.30583991732615157	0.2812697856950247	0.7227409819676343	0.6957026789101899	0.28369766472404767	0.9544545338130144	1.1348280203538648	0.27705180770497695	0.736952346077152	1.1759821791544243	0.33220114757575264	0.7576780483347986	1.173636165318659	0.2739682979314167	1.0041045240381257	1.1810111157939933	0.08442202658215295	0.6872712171724025	0.31514541435129073	0.09117157512192471	0.7736347666236545	0.7069034017982654	0.10154905189805677	0.8817114647087119	1.1243834600670457	0.11548668347991604	0.7011219103310662	1.1566830870302875	0.06573728687733414	0.7200838914884222	1.1522705846949952	0.12253804313246718	0.9538077138674067	1.1716754020101208	0.20613788479855166	0.48283622883281346	-0.31316123619378133	0.18366867323330593	0.36255694487243667	-0.5538735883937688	0.16917462994830973	0.33330659262459406	-0.3941620659346948	0.36497644919913147	0.4626222706356463	-0.20635289574682467	0.4284099256906224	0.49870192132486246	0.07029801040305456	0.41021213989813854	0.4106146747967663	0.296993508636088	0.3326733640816314	0.3543216431826755	0.41167208350913576	0.34525838027905786	0.3617610274936085	0.4413628904962765	0.3699720926050717	0.4080751041174451	0.4389879487990803	0.035664084126388086	0.5081388821323434	-0.21956434485245438	-0.03884037992658124	0.5908339061552482	0.05967772067732755	-0.08761221918442838	0.5368653887606358	0.3155752303293814	-0.026781362032930973	0.49765152536258433	0.4193540497847186	-0.05481488061789286	0.48384680532376306	0.4391032591224399	-0.09070275844060782	0.5413103373977893	0.4417343593710142
212	3.593220338983051	0.31125834688026066	0.6282661746541435	0.30509754109262954	0.28057965278904856	0.7258861871233234	0.6963454375536442	0.2837458316778118	0.9541045330622631	1.1348009265033565	0.2781277806391284	0.7378010984162632	1.1764165333089018	0.33221202705364805	0.7578585298361906	1.1737905436166471	0.27392536485226887	1.0040592096936918	1.1827959184705865	0.08408866760785935	0.6873373194604053	0.3169513974880615	0.09088886890524207	0.7735410590415434	0.706375468601244	0.10153270698757312	0.8817118432240164	1.1242513426370904	0.11420181179173071	0.7064932695940357	1.157960653724989	0.06427815410900786	0.7245711502090445	1.1538919815197393	0.12255763705233061	0.9533405329783599	1.1716879556214217	0.20602430289414977	0.4823070046909883	-0.31437966347702706	0.1811514214657958	0.3581167859116182	-0.5539849700754576	0.1681438244987794	0.33305570057602824	-0.39446758792502495	0.3648476773402011	0.46181059143029113	-0.20760109953852252	0.42782759414138244	0.4904244117423501	0.06944742517003408	0.4139148843178515	0.39227539040860576	0.2932463881170001	0.3346046357252327	0.35021844603803687	0.41044013110142075	0.34759610291694226	0.3511471720662652	0.4375524501431636	0.37267601553268426	0.40413240563457725	0.43745998483718673	0.03482846203306621	0.5050020261621543	-0.2192421605458222	-0.04156242943007058	0.5847008542097987	0.05734757529470333	-0.08916034486953117	0.53390883344565	0.3142181783420942	-0.033087174595606623	0.49600176383843786	0.4184145767788532	-0.06339985265484972	0.47080520512327223	0.4373425298360394	-0.0940024147055127	0.5293219571771912	0.4395595019482125
